<svg width="102" height="38" viewBox="0 0 102 38" fill="none" xmlns="http://www.w3.org/2000/svg">
<path d="M30.5179 4.79515C29.8959 5.29277 28.3475 5.0998 27.6471 5.14668C25.1776 5.31196 22.7115 5.46832 20.2552 5.78139C17.9755 6.07193 13.4884 6.1063 12.8828 8.95494C12.3669 11.3817 13.8046 12.8889 15.6657 14.1986C15.8155 14.304 16.7925 14.8058 16.5153 14.7845C14.9476 14.6639 13.4838 14.2073 11.8868 14.3256C7.50772 14.6499 4.04156 18.4086 2.2099 22.1374C1.30181 23.986 1.00883 25.8883 1.00883 27.9376C1.00883 28.6226 0.936813 29.5968 1.20412 30.2616C1.57556 31.1855 3.03332 31.9284 3.84061 32.3513C4.76481 32.8354 5.61994 32.9549 6.65286 32.9763C8.97986 33.0244 11.3896 32.9046 13.6835 32.5075C18.2062 31.7246 22.496 29.6051 26.5105 27.0977M26.5105 27.0977C28.9433 25.5782 31.2751 23.9162 33.4962 22.3229C39.862 17.7566 45.4796 12.2292 51.7836 7.60854M26.5105 27.0977C29.315 24.5576 32.214 22.1377 35.1953 19.7938C40.579 15.5611 45.9907 11.2765 51.7836 7.60854M26.5105 27.0977C25.7164 27.8169 24.9299 28.5457 24.1513 29.2852C22.7454 30.6204 21.4248 32.0171 19.9427 33.2692C18.9581 34.101 17.3115 34.9717 16.5934 36.0814C16.3271 36.493 17.0488 36.1208 17.3941 36.0424C21.4177 35.1289 25.2271 33.7344 28.9227 32.073M51.7836 7.60854C52.2074 7.29791 52.6343 6.99138 53.0648 6.68951C55.2518 5.15574 57.5066 3.70846 59.7732 2.29537C60.4378 1.88102 62.0389 0.458114 61.8628 1.22124C61.5168 2.72063 58.35 3.83215 57.2734 4.40456C55.4001 5.40053 53.5737 6.4751 51.7836 7.60854ZM28.9227 32.073C31.8195 30.7708 34.6464 29.3046 37.4517 27.7777M28.9227 32.073C27.477 32.0206 28.2787 31.868 29.2192 31.5701C32.1147 30.6532 34.7649 29.1702 37.4517 27.7777M28.9227 32.073C28.9703 32.0748 29.0203 32.0764 29.0728 32.0779C46.5169 32.5799 64.0099 32.2146 81.4607 32.2146C86.7747 32.2146 92.1366 32.0101 97.4456 32.3123C98.6359 32.38 99.8069 32.5661 101 32.5661M37.4517 27.7777C39.0203 26.9239 40.5821 26.0511 42.1457 25.1774L42.431 25.018C45.6637 23.2117 48.8753 21.3703 52.2934 19.9305C55.1353 18.7334 58.0487 17.6974 60.9157 16.5617C62.664 15.8691 64.3826 14.9347 66.1593 14.3256C68.0261 13.6855 62.8061 16.4322 61.0035 17.2355C58.1113 18.5242 55.124 19.5796 52.2153 20.8289C47.5344 22.8393 42.9053 25.0149 38.359 27.3127C38.0559 27.4659 37.7536 27.6212 37.4517 27.7777ZM70.0652 26.7659C70.0652 28.0142 69.5994 28.5559 68.9423 29.5781C68.8172 29.7726 68.5068 30.5972 68.4833 30.8085C68.4165 31.4105 67.8193 32.0331 67.5655 32.5661C67.1943 33.3456 67.0645 34.4934 66.3742 35.1147C65.9271 35.5171 65.8621 36.5859 65.4953 37.136M74.1078 28.5235C73.5871 29.16 73.1152 30.0931 72.7994 30.8475C72.6216 31.2722 72.2681 31.6554 72.1842 32.117C72.1472 32.3204 72.2414 32.5712 72.0963 32.7419C71.3991 33.5622 71.2956 34.7026 71.2956 35.7299" stroke="white" stroke-linecap="round"/>
</svg>
